<?xml version="1.0" encoding="utf-8"?>
<!-- Generator: Adobe Illustrator 19.1.0, SVG Export Plug-In . SVG Version: 6.00 Build 0)  -->
<svg version="1.1" id="Слой_1" xmlns="http://www.w3.org/2000/svg" xmlns:xlink="http://www.w3.org/1999/xlink" x="0px" y="0px"
	 viewBox="0 0 22.9 20" style="enable-background:new 0 0 22.9 20;" xml:space="preserve">
<g>
	<path d="M-24.6,0c-3.8,0-7,3.1-7,7v0c0,1.2,0.3,2.3,0.8,3.3l0.2,0.4l5.2,9c0.1,0.3,0.4,0.4,0.7,0.4c0.3,0,0.5-0.1,0.7-0.4l5.3-9
		l0.2-0.3c0.5-1,0.8-2.1,0.8-3.3v0C-17.7,3.1-20.8,0-24.6,0z M-19.8,8.8l-0.3,0.6c0,0.1-0.1,0.2-0.2,0.3l-2.3,3.9l-2.1,3.6l-2.1-3.6
		l-2.3-4l-0.1-0.2l-0.3-0.6l0,0c-0.2-0.6-0.3-1.2-0.3-1.8c0-2.8,2.3-5.1,5.1-5.1c2.8,0,5.1,2.3,5.1,5.1C-19.5,7.6-19.6,8.2-19.8,8.8
		L-19.8,8.8z"/>
	<path d="M-24.6,5.8c0.6,0,1.2,0.5,1.2,1.2s-0.5,1.2-1.2,1.2c-0.6,0-1.2-0.5-1.2-1.2S-25.3,5.8-24.6,5.8 M-24.6,4c-1.6,0-3,1.3-3,3
		c0,1.6,1.3,3,3,3c1.6,0,3-1.3,3-3C-21.6,5.3-23,4-24.6,4L-24.6,4z"/>
</g>
<g>
	<path d="M51.4,16.5l-4.7-4.7c0.8-1.1,1.2-2.4,1.2-3.7c0-0.9-0.2-1.7-0.5-2.5c-0.3-0.8-0.8-1.5-1.4-2.1c-1.2-1.2-2.8-1.9-4.6-1.9
		c-1.7,0-3.4,0.7-4.6,1.9c-1.2,1.2-1.9,2.8-1.9,4.6c0,1.7,0.7,3.4,1.9,4.6c1.2,1.2,2.8,1.9,4.6,1.9c1.3,0,2.6-0.4,3.7-1.2l4.7,4.7
		c0.4,0.4,1.1,0.4,1.5,0l0.1-0.1C51.8,17.5,51.8,16.9,51.4,16.5z M38.4,11.1c-0.8-0.8-1.2-1.8-1.2-3c0-1.1,0.4-2.2,1.2-3
		c0.8-0.8,1.8-1.2,3-1.2c0.6,0,1.1,0.1,1.6,0.3c0.5,0.2,1,0.5,1.4,0.9c0.8,0.8,1.2,1.8,1.2,3c0,1.1-0.4,2.2-1.2,3
		c-0.8,0.8-1.8,1.2-3,1.2C40.3,12.3,39.2,11.8,38.4,11.1z"/>
</g>
<g>
	<path d="M22.8,4.2c0.1-0.5,0-1-0.3-1.5c-0.3-0.4-0.8-0.6-1.3-0.6H5.6L5.2,0H0.4C0.2,0,0,0.2,0,0.4c0,0.8,0.6,1.4,1.4,1.4h2.3
		l2.7,14.4C6.1,16.7,6,17.3,6.2,18c0.2,1,1,1.8,2,2c1.7,0.3,3.1-0.9,3.1-2.5c0-0.3,0-0.5-0.1-0.7h4.8c-0.1,0.2-0.1,0.5-0.1,0.7
		c0,1.6,1.5,2.9,3.1,2.5c1-0.2,1.8-1,2-2c0.4-1.7-0.9-3.1-2.5-3.1H8l-0.5-2.4h12.7c0.4,0,0.8-0.3,0.9-0.7L22.8,4.2z M18.4,16.7
		c0.4,0,0.7,0.3,0.7,0.7c0,0.4-0.3,0.7-0.7,0.7c-0.4,0-0.7-0.3-0.7-0.7C17.7,17,18,16.7,18.4,16.7z M9.4,17.4c0,0.4-0.3,0.7-0.7,0.7
		c-0.4,0-0.7-0.3-0.7-0.7c0-0.4,0.3-0.7,0.7-0.7C9.1,16.7,9.4,17,9.4,17.4z M7.2,10.5L6,4h15l-1.5,6.5H7.2z"/>
</g>
</svg>
