<svg width="24" height="24" viewBox="0 0 24 24" fill="none" xmlns="http://www.w3.org/2000/svg">
<g clip-path="url(#clip0)">
<rect width="24" height="24" fill="#E8E8E8"/>
<path d="M23.9717 4.55382C23.9373 4.51327 23.8805 4.4995 23.8321 4.52162C23.1146 4.83995 22.3597 5.06879 21.5822 5.20399C22.4077 4.58308 23.0227 3.72324 23.338 2.7373C23.3533 2.6901 23.3376 2.63848 23.299 2.60776C23.2601 2.57703 23.2063 2.5731 23.1638 2.59842C22.2341 3.14977 21.2273 3.53839 20.1698 3.75396C19.2328 2.78155 17.9244 2.22528 16.5702 2.22528C13.8162 2.22528 11.5759 4.46558 11.5759 7.21937C11.5759 7.55244 11.6081 7.88232 11.672 8.2026C7.85753 7.96712 4.29085 6.13585 1.8657 3.16132C1.84088 3.13084 1.80327 3.11388 1.76394 3.11781C1.72485 3.12076 1.68995 3.14288 1.67029 3.17656C1.22783 3.93562 0.994067 4.80406 0.994067 5.68749C0.994067 7.21863 1.6897 8.65022 2.87425 9.59486C2.2644 9.52161 1.66881 9.32964 1.13172 9.03147C1.09559 9.01107 1.0506 9.01131 1.01447 9.03221C0.978335 9.05286 0.955475 9.0912 0.954492 9.13299L0.954 9.1969C0.954 11.3959 2.40304 13.3267 4.46463 13.9678C3.92164 14.0553 3.35825 14.0494 2.80445 13.9437C2.76364 13.9361 2.72087 13.9501 2.69285 13.9816C2.66507 14.013 2.65573 14.057 2.66851 14.0968C3.28672 16.0264 5.00443 17.3796 7.00384 17.5482C5.33603 18.7702 3.36464 19.4139 1.28166 19.4139C0.897956 19.4139 0.511545 19.3911 0.133 19.3466C0.0789223 19.3404 0.025336 19.3726 0.00665459 19.4245C-0.0120268 19.4769 0.00788363 19.5354 0.0545872 19.5651C2.30865 21.0107 4.91496 21.7744 7.59205 21.7744C16.349 21.7744 21.5817 14.6612 21.5817 7.78448C21.5817 7.593 21.5781 7.4025 21.5704 7.21249C22.5151 6.52152 23.326 5.67569 23.9799 4.69664C24.0091 4.65288 24.0059 4.59463 23.9717 4.55382Z" fill="white"/>
</g>
<defs>
<clipPath id="clip0">
<rect width="24" height="24" fill="white"/>
</clipPath>
</defs>
</svg>
