<?xml version="1.0" encoding="utf-8"?>
<!-- Generator: Adobe Illustrator 19.1.0, SVG Export Plug-In . SVG Version: 6.00 Build 0)  -->
<svg version="1.1" id="Слой_1" xmlns="http://www.w3.org/2000/svg" xmlns:xlink="http://www.w3.org/1999/xlink" x="0px" y="0px"
	 viewBox="0 0 20 20" style="enable-background:new 0 0 20 20;" xml:space="preserve">
<style type="text/css">
	.st0{fill:#FFFFFF;}
</style>
<g>
	<path class="st0" d="M10,0c-3.8,0-7,3.1-7,7v0c0,1.2,0.3,2.3,0.8,3.3l0.2,0.4l5.2,9C9.5,19.9,9.7,20,10,20c0.3,0,0.5-0.1,0.7-0.4
		l5.3-9l0.2-0.3c0.5-1,0.8-2.1,0.8-3.3v0C16.9,3.1,13.8,0,10,0z M14.8,8.8l-0.3,0.6c0,0.1-0.1,0.2-0.2,0.3l-2.3,3.9L10,17.2
		l-2.1-3.6l-2.3-4L5.5,9.4L5.2,8.8l0,0C5,8.2,4.9,7.6,4.9,7c0-2.8,2.3-5.1,5.1-5.1c2.8,0,5.1,2.3,5.1,5.1C15.1,7.6,15,8.2,14.8,8.8
		L14.8,8.8z"/>
	<path class="st0" d="M10,5.8c0.6,0,1.2,0.5,1.2,1.2S10.6,8.1,10,8.1c-0.6,0-1.2-0.5-1.2-1.2S9.4,5.8,10,5.8 M10,4c-1.6,0-3,1.3-3,3
		c0,1.6,1.3,3,3,3c1.6,0,3-1.3,3-3C13,5.3,11.6,4,10,4L10,4z"/>
</g>
</svg>
