<?xml version="1.0" encoding="utf-8"?>
<!-- Generator: Adobe Illustrator 19.1.0, SVG Export Plug-In . SVG Version: 6.00 Build 0)  -->
<svg version="1.1" id="Слой_1" xmlns="http://www.w3.org/2000/svg" xmlns:xlink="http://www.w3.org/1999/xlink" x="0px" y="0px"
	 viewBox="0 0 20 20" style="enable-background:new 0 0 20 20;" xml:space="preserve">
<g>
	<path d="M-27.5,0c-3.8,0-7,3.1-7,7v0c0,1.2,0.3,2.3,0.8,3.3l0.2,0.4l5.2,9c0.1,0.3,0.4,0.4,0.7,0.4c0.3,0,0.5-0.1,0.7-0.4l5.3-9
		l0.2-0.3c0.5-1,0.8-2.1,0.8-3.3v0C-20.6,3.1-23.7,0-27.5,0z M-22.7,8.8L-23,9.4c0,0.1-0.1,0.2-0.2,0.3l-2.3,3.9l-2.1,3.6l-2.1-3.6
		l-2.3-4L-32,9.4l-0.3-0.6l0,0c-0.2-0.6-0.3-1.2-0.3-1.8c0-2.8,2.3-5.1,5.1-5.1c2.8,0,5.1,2.3,5.1,5.1C-22.4,7.6-22.5,8.2-22.7,8.8
		L-22.7,8.8z"/>
	<path d="M-27.5,5.8c0.6,0,1.2,0.5,1.2,1.2s-0.5,1.2-1.2,1.2c-0.6,0-1.2-0.5-1.2-1.2S-28.1,5.8-27.5,5.8 M-27.5,4c-1.6,0-3,1.3-3,3
		c0,1.6,1.3,3,3,3c1.6,0,3-1.3,3-3C-24.5,5.3-25.9,4-27.5,4L-27.5,4z"/>
</g>
<g>
	<path d="M18.1,16.5l-4.7-4.7c0.8-1.1,1.2-2.4,1.2-3.7c0-0.9-0.2-1.7-0.5-2.5c-0.3-0.8-0.8-1.5-1.4-2.1c-1.2-1.2-2.8-1.9-4.6-1.9
		c-1.7,0-3.4,0.7-4.6,1.9C2.3,4.7,1.6,6.4,1.6,8.1c0,1.7,0.7,3.4,1.9,4.6c1.2,1.2,2.8,1.9,4.6,1.9c1.3,0,2.6-0.4,3.7-1.2l4.7,4.7
		c0.4,0.4,1.1,0.4,1.5,0l0.1-0.1C18.5,17.5,18.5,16.9,18.1,16.5z M5.1,11.1c-0.8-0.8-1.2-1.8-1.2-3c0-1.1,0.4-2.2,1.2-3
		c0.8-0.8,1.8-1.2,3-1.2c0.6,0,1.1,0.1,1.6,0.3c0.5,0.2,1,0.5,1.4,0.9c0.8,0.8,1.2,1.8,1.2,3c0,1.1-0.4,2.2-1.2,3
		c-0.8,0.8-1.8,1.2-3,1.2C7,12.3,5.9,11.8,5.1,11.1z"/>
</g>
</svg>
